<svg width="98px" height="40px" viewBox="0 0 98 40" version="1.1" xmlns="http://www.w3.org/2000/svg" xmlns:xlink="http://www.w3.org/1999/xlink">
    <g id="Symbols" stroke="none" stroke-width="1" fill="none" fill-rule="evenodd">
        <g id="Badge-/-Full-/-White">
            <path d="M0,11.6084248 C0,5.19800806 5.1438091,0 11.4884377,0 L86.3839027,0 C92.7285313,0 97.8723404,5.19800806 97.8723404,11.6084248 L97.8723404,28.3924375 C97.8723404,34.8028542 92.7285313,40 86.3839027,40 L11.4884377,40 C5.1438091,40 0,34.8028542 0,28.3924375 L0,11.6084248" id="Fill-1" fill="#FFFFFF"></path>
            <path d="M74.7531915,16.7702128 C76.0144681,16.7702128 77.1846809,17.1591489 78.1531915,17.8204255 L78.1531915,17.8204255 L78.1531915,17.0868085 L81.5838298,17.0868085 L81.5838298,28.5438298 L78.1531915,28.5438298 L78.1531915,27.8119149 C77.1846809,28.4723404 76.0144681,28.8604255 74.7531915,28.8604255 C71.4144681,28.8604255 68.7080851,26.1548936 68.7080851,22.8161702 C68.7080851,19.4774468 71.4144681,16.7702128 74.7531915,16.7702128 Z M38.5668085,16.7702128 C39.8280851,16.7702128 40.9974468,17.1591489 41.9668085,17.8204255 L41.9668085,17.8204255 L41.9668085,17.0868085 L45.3965957,17.0868085 L45.3965957,28.5438298 L41.9668085,28.5438298 L41.9668085,27.8119149 C40.9974468,28.4723404 39.8280851,28.8604255 38.5668085,28.8604255 C35.2280851,28.8604255 32.5208511,26.1548936 32.5208511,22.8161702 C32.5208511,19.4774468 35.2280851,16.7702128 38.5668085,16.7702128 Z M85.2255319,24.48 C86.4144681,24.48 87.3778723,25.4442553 87.3778723,26.6331915 C87.3778723,27.8221277 86.4144681,28.7855319 85.2255319,28.7855319 C84.0365957,28.7855319 83.0723404,27.8221277 83.0723404,26.6331915 C83.0723404,25.4442553 84.0365957,24.48 85.2255319,24.48 Z M25.0510638,11.9787234 C25.0510638,15.5659574 23.652766,18.9029787 21.1617021,21.3829787 L21.1617021,21.3829787 L26.4161702,28.5489362 L21.7217021,28.5489362 L16.0102128,20.7617021 L17.4842553,19.6578723 C19.9285106,17.826383 21.3310638,15.027234 21.3310638,11.9787234 L21.3310638,11.9787234 Z M15.5557447,11.9787234 L15.5557447,28.5480851 L11.8289362,28.5480851 L11.8289362,11.9787234 L15.5557447,11.9787234 Z M31.1148936,11.9812766 L31.1148936,28.5438298 L27.5251064,28.5438298 L27.5251064,11.9812766 L31.1148936,11.9812766 Z M62.612766,16.7787234 C65.3761702,16.7787234 67.4961702,18.5923404 67.4961702,21.2587234 L67.4961702,21.2587234 L67.4961702,28.5438298 L64.0697872,28.5438298 L64.0697872,22.4995745 C64.0697872,20.8289362 63.2034043,19.9276596 61.6961702,19.9276596 C60.2893617,19.9276596 59.1208511,20.7812766 59.1208511,22.5234043 L59.1208511,22.5234043 L59.1208511,28.5438298 L55.6638298,28.5438298 L55.6638298,17.0876596 L59.0791489,17.0876596 L59.0791489,18.3778723 C59.946383,17.2042553 61.2425532,16.7787234 62.612766,16.7787234 Z M50.7029787,17.0868085 L50.7029787,18.5795745 C51.3906383,17.6842553 52.6714894,17.0876596 54.0646809,17.0876596 L54.0646809,17.0876596 L54.0646809,20.4212766 C54.0510638,20.4212766 54.0374468,20.4195745 54.0238298,20.4195745 C52.666383,20.4195745 50.7106383,21.3906383 50.7106383,23.1948936 L50.7106383,23.1948936 L50.7106383,28.5438298 L47.1914894,28.5438298 L47.1914894,17.0868085 L50.7029787,17.0868085 Z M75.0340426,19.8680851 C73.3174468,19.8680851 71.9259574,21.1880851 71.9259574,22.8161702 C71.9259574,24.4434043 73.3174468,25.7634043 75.0340426,25.7634043 C76.7506383,25.7634043 78.1421277,24.4434043 78.1421277,22.8161702 C78.1421277,21.1880851 76.7506383,19.8680851 75.0340426,19.8680851 Z M38.8468085,19.8680851 C37.1310638,19.8680851 35.7395745,21.1880851 35.7395745,22.8161702 C35.7395745,24.4434043 37.1310638,25.7634043 38.8468085,25.7634043 C40.5634043,25.7634043 41.9548936,24.4434043 41.9548936,22.8161702 C41.9548936,21.1880851 40.5634043,19.8680851 38.8468085,19.8680851 Z" id="Combined-Shape" fill="#000000"></path>
        </g>
    </g>
</svg>